<svg xmlns="http://www.w3.org/2000/svg" width="21" height="20" viewBox="0 0 21 20">
    <g fill="none" fill-rule="evenodd">
        <g stroke="#FFF" stroke-width="2">
            <g>
                <g>
                    <g>
                        <g>
                            <path d="M1.486 6.275c-.302.18-.486.506-.486.857V18c0 .552.448 1 1 1h17c.552 0 1-.448 1-1V7.132c0-.35-.184-.676-.486-.857l-8.6-5.16C10.79 1.04 10.646 1 10.5 1c-.146 0-.29.04-.414.115l-8.6 5.16z" transform="translate(-33 -344) translate(-.659 .002) translate(33.659 339.998) translate(0 4)"/>
                            <path d="M10.5 7c.146 0 .29.04.414.115L20 12.566V13c0-.24.194-.434.434-.434.078 0 .156.022.223.062L11.943 7.4c-.436-.262-.935-.4-1.443-.4zm0 0c-.508 0-1.007.138-1.443.4L.343 12.628c.205-.123.472-.057.595.149.04.067.062.144.062.223v-.434l9.086-5.451C10.21 7.04 10.354 7 10.5 7z" transform="translate(-33 -344) translate(-.659 .002) translate(33.659 339.998) translate(0 4) matrix(1 0 0 -1 0 20)"/>
                        </g>
                    </g>
                </g>
            </g>
        </g>
    </g>
</svg>
