<svg xmlns="http://www.w3.org/2000/svg" width="22" height="22" viewBox="0 0 22 22">
    <g fill="none" fill-rule="evenodd">
        <g fill="#FFF" fill-rule="nonzero">
            <g>
                <g>
                    <g>
                        <g>
                            <path d="M18.63 7.976c.092.127.24.205.397.206h.155C20.738 8.182 22 9.444 22 11s-1.262 2.818-2.818 2.818h-.078c-.2.001-.38.12-.458.303l-.004.01c-.082.187-.043.405.092.544l.055.054c.529.528.826 1.246.826 1.994s-.297 1.465-.826 1.993c-.528.529-1.246.826-1.994.826s-1.465-.297-1.993-.826l-.047-.047c-.146-.143-.364-.182-.561-.095-.183.078-.302.258-.303.453v.155c0 1.556-1.262 2.818-2.818 2.818-1.557 0-2.818-1.262-2.818-2.818v-.059c-.005-.205-.135-.386-.386-.48-.187-.083-.405-.044-.544.091l-.054.055c-.528.529-1.246.826-1.994.826s-1.465-.297-1.993-.826c-.529-.528-.826-1.246-.826-1.994s.297-1.465.826-1.993l.047-.047c.143-.146.182-.364.095-.561-.078-.183-.258-.302-.453-.303h-.155C1.262 13.89 0 12.629 0 11.073c0-1.557 1.262-2.818 2.818-2.818h.059c.205-.005.386-.135.48-.386.083-.187.044-.405-.091-.544l-.055-.054c-.529-.528-.826-1.246-.826-1.994s.297-1.465.826-1.993c.528-.529 1.246-.826 1.994-.826s1.465.297 1.993.826l.047.047c.146.143.364.182.551.1.058-.026.119-.046.18-.06.127-.093.205-.24.206-.398v-.155C8.182 1.262 9.444 0 11 0s2.818 1.262 2.818 2.818v.078c.001.2.12.38.313.462.187.082.405.043.544-.092l.054-.055c.528-.529 1.246-.826 1.994-.826s1.465.297 1.993.826c.529.528.826 1.246.826 1.994s-.297 1.465-.826 1.993l-.047.047c-.143.146-.182.364-.1.551.026.058.046.119.06.18zm.47 3.842h.082c.452 0 .818-.366.818-.818 0-.452-.366-.818-.818-.818h-.159c-.996-.004-1.895-.6-2.288-1.515-.035-.082-.058-.168-.07-.255-.309-.89-.091-1.885.582-2.574l.055-.055c.154-.153.24-.361.24-.578 0-.218-.086-.426-.24-.58-.154-.154-.362-.24-.58-.24-.216 0-.425.086-.579.24l-.062.063c-.73.714-1.823.912-2.748.504-.916-.393-1.51-1.292-1.515-2.292v-.082c0-.452-.366-.818-.818-.818-.452 0-.818.366-.818.818v.159c-.004.996-.6 1.895-1.515 2.288-.082.035-.168.058-.255.07-.89.309-1.885.091-2.574-.582l-.055-.055c-.153-.154-.361-.24-.578-.24-.218 0-.426.086-.58.24-.154.154-.24.362-.24.58 0 .216.086.425.24.579l.063.062c.714.73.912 1.823.523 2.699-.354.963-1.261 1.612-2.311 1.637h-.082c-.452 0-.818.366-.818.818 0 .452.366.818.818.818h.159c.996.004 1.895.6 2.283 1.505.413.935.215 2.027-.507 2.766l-.055.055c-.154.153-.24.361-.24.578 0 .218.086.426.24.58.154.154.362.24.58.24.216 0 .425-.086.579-.24l.062-.063c.73-.714 1.823-.912 2.699-.523.963.354 1.612 1.261 1.637 2.311v.082c0 .452.366.818.818.818.452 0 .818-.366.818-.818v-.159c.004-.996.6-1.895 1.505-2.283.935-.413 2.027-.215 2.766.507l.055.055c.153.154.361.24.578.24.218 0 .426-.086.58-.24.154-.154.24-.362.24-.58 0-.216-.086-.425-.24-.579l-.063-.062c-.713-.73-.912-1.819-.502-2.753.394-.913 1.291-1.506 2.29-1.51zm-8.1 1.91c1.506 0 2.727-1.222 2.727-2.728 0-1.506-1.22-2.727-2.727-2.727-1.506 0-2.727 1.22-2.727 2.727 0 1.506 1.22 2.727 2.727 2.727z" transform="translate(-33 -705) translate(-.659 .002) translate(32.659 701.998) translate(0 2) translate(1 1)"/>
                        </g>
                    </g>
                </g>
            </g>
        </g>
    </g>
</svg>
