<svg xmlns="http://www.w3.org/2000/svg" width="21" height="21" viewBox="0 0 21 21">
    <g fill="none" fill-rule="evenodd">
        <g fill="#FFF" fill-rule="nonzero">
            <g>
                <g>
                    <path d="M19.68 12.88c.442 0 .8-.358.8-.8v-5.2c0-.442-.358-.8-.8-.8h-4.16V4.36c0-.419.358-.76.8-.76.44 0 .8.341.8.76 0 .442.357.8.8.8.441 0 .8-.358.8-.8 0-1.301-1.077-2.36-2.4-2.36-1.324 0-2.4 1.059-2.4 2.36v1.72H2.4c-.442 0-.8.358-.8.8v10.8H.8c-.442 0-.8.358-.8.8 0 2.205 1.794 4 4 4h12.48c2.206 0 4-1.795 4-4 0-.442-.358-.8-.8-.8h-.8v-4.8h.8zm-.8-1.6h-5.12v-3.6h5.12v3.6zm-2.4 9.6H4c-1.043 0-1.933-.669-2.263-1.6h17.006c-.33.931-1.22 1.6-2.263 1.6zm.8-3.2H3.2v-10h8.96v4.4c0 .442.358.8.8.8h4.32v4.8z" transform="translate(-34 -765) translate(-.659 .002) translate(34.659 762.998)"/>
                </g>
            </g>
        </g>
    </g>
</svg>
