<svg xmlns="http://www.w3.org/2000/svg" width="21" height="20" viewBox="0 0 21 20">
    <g fill="none" fill-rule="evenodd">
        <g fill="#FFF" fill-rule="nonzero">
            <g>
                <g>
                    <path d="M18.976 20.153h-.698v-9.707h1.28c.595 0 .806-.79.291-1.087l-9.03-5.203c-.357-.205-.8-.205-1.156 0L.633 9.36c-.515.297-.304 1.087.29 1.087h1.282v9.707h-.7c-.641 0-1.164.522-1.164 1.164v1.32c0 .643.523 1.165 1.165 1.165h17.47c.643 0 1.165-.522 1.165-1.165v-1.32c0-.642-.522-1.164-1.165-1.164zM10.241 5.167l7.14 4.115H3.102l7.14-4.115zm6.872 13.666v1.32H3.369v-1.32h13.744zM3.369 17.668v-7.222h1.32v7.222H3.37zm2.485 0v-7.222h2.562v7.222H5.854zm3.727 0v-7.222h1.32v7.222h-1.32zm2.485 0v-7.222h2.562v7.222h-2.562zm3.727 0v-7.222h1.32v7.222h-1.32zm3.183 4.97H1.506v-1.32h17.47c.001 1.349.004 1.32 0 1.32z" transform="translate(-34 -160) translate(-.659 .002) translate(34.659 155.998)"/>
                </g>
            </g>
        </g>
    </g>
</svg>
