<svg xmlns="http://www.w3.org/2000/svg" width="18" height="27" viewBox="0 0 18 27">
    <g fill="none" fill-rule="evenodd">
        <g fill="#000" fill-rule="nonzero">
            <g>
                <path d="M8.855 0C3.985 0 .023 3.96.023 8.826c0 4.677 8.026 17.333 8.368 17.87.101.158.276.254.464.254s.363-.096.464-.255c.342-.536 8.368-13.192 8.368-17.869C17.687 3.959 13.725 0 8.855 0zm0 25.362c-.726-1.175-2.2-3.607-3.66-6.302-2.664-4.918-4.072-8.457-4.072-10.234 0-4.26 3.469-7.726 7.732-7.726s7.732 3.466 7.732 7.726c0 1.777-1.408 5.316-4.072 10.234-1.46 2.695-2.934 5.127-3.66 6.302z" transform="translate(-285 -230) translate(285 230)"/>
                <path d="M8.855 4.184c-2.304 0-4.178 1.823-4.178 4.064s1.874 4.064 4.178 4.064 4.178-1.823 4.178-4.064c0-2.24-1.874-4.064-4.178-4.064zm0 7.028c-1.697 0-3.078-1.33-3.078-2.964s1.38-2.964 3.078-2.964c1.697 0 3.078 1.33 3.078 2.964s-1.381 2.964-3.078 2.964z" transform="translate(-285 -230) translate(285 230)"/>
            </g>
        </g>
    </g>
</svg>
