<svg xmlns="http://www.w3.org/2000/svg" width="24" height="24" viewBox="0 0 24 24">
    <g fill="none" fill-rule="evenodd">
        <g fill="#000" fill-rule="nonzero">
            <g>
                <path d="M12 0C5.373 0 0 5.373 0 12s5.373 12 12 12 12-5.373 12-12C23.993 5.376 18.624.007 12 0zm10.378 16.204l-3.412.589c.39-1.433.601-2.908.628-4.393h3.596c-.045 1.306-.32 2.594-.812 3.804zM.81 12.4h3.596c.027 1.485.238 2.96.628 4.393l-3.412-.59C1.13 14.994.855 13.707.81 12.4zm.812-4.604l3.412-.589c-.39 1.433-.601 2.908-.628 4.393H.81c.045-1.306.32-2.594.812-3.804zM12.4 6.422c1.437.019 2.871.15 4.288.392l1.412.244c.434 1.476.667 3.004.694 4.542H12.4V6.422zm4.424-.396c-1.462-.25-2.941-.385-4.424-.404v-4.8c2.293.22 4.285 2.32 5.414 5.376l-.99-.172zM11.6 5.622c-1.483.019-2.962.154-4.424.404l-.99.17C7.315 3.14 9.306 1.04 11.6.822v4.801zM7.312 6.814c1.417-.242 2.85-.373 4.288-.392V11.6H5.206c.027-1.538.26-3.066.694-4.542l1.412-.244zM5.206 12.4H11.6v5.178c-1.437-.019-2.871-.15-4.288-.392L5.9 16.942c-.434-1.476-.667-3.004-.694-4.542zm1.97 5.574c1.461.25 2.94.386 4.424.406v4.8c-2.293-.22-4.285-2.32-5.414-5.376l.99.17zm5.224.406c1.483-.02 2.962-.155 4.424-.406l.99-.17c-1.129 3.056-3.12 5.156-5.414 5.375v-4.8zm4.288-1.194c-1.417.242-2.85.373-4.288.392V12.4h6.394c-.027 1.538-.26 3.066-.694 4.542l-1.412.244zm2.906-5.586c-.027-1.485-.238-2.96-.628-4.393l3.412.59c.492 1.21.767 2.497.812 3.803h-3.596zm2.38-4.686l-3.272-.564c-.588-1.919-1.688-3.64-3.182-4.98 2.794.932 5.11 2.923 6.454 5.544zM8.48 1.37C6.986 2.71 5.886 4.43 5.298 6.35l-3.272.564C3.37 4.293 5.686 2.302 8.48 1.37zM2.026 17.086l3.272.564c.588 1.919 1.688 3.64 3.182 4.98-2.794-.932-5.11-2.923-6.454-5.544zM15.52 22.63c1.494-1.34 2.594-3.061 3.182-4.98l3.272-.564c-1.343 2.621-3.66 4.612-6.454 5.544z" transform="translate(-281 -185) translate(281 185)"/>
            </g>
        </g>
    </g>
</svg>
